<?xml version="1.0" standalone="no"?>
<!DOCTYPE svg PUBLIC "-//W3C//DTD SVG 20010904//EN"
 "http://www.w3.org/TR/2001/REC-SVG-20010904/DTD/svg10.dtd">
<svg version="1.0" xmlns="http://www.w3.org/2000/svg"
 width="240.000000pt" height="240.000000pt" viewBox="0 0 240.000000 240.000000"
 preserveAspectRatio="xMidYMid meet">
<metadata>
Created by potrace 1.11, written by Peter Selinger 2001-2013
</metadata>
<g transform="translate(0.000000,240.000000) scale(0.100000,-0.100000)"
fill="#000000" stroke="none">
<path d="M1065 2393 c-198 -37 -284 -63 -397 -119 -181 -91 -325 -214 -443
-379 -145 -203 -219 -430 -219 -675 -1 -244 34 -390 138 -587 75 -141 219
-309 326 -383 19 -13 37 -27 40 -30 25 -27 178 -108 272 -143 139 -53 249 -71
418 -71 176 0 243 11 405 67 160 55 352 179 459 296 17 19 36 39 42 45 35 37
126 173 161 241 90 176 127 336 126 540 0 130 -7 228 -18 245 -2 4 -7 22 -10
41 -38 215 -243 534 -425 661 -25 18 -47 34 -50 37 -12 14 -92 62 -156 93 -90
45 -221 90 -299 104 -22 4 -49 9 -60 11 -26 6 -284 11 -310 6z"/>
</g>
</svg>
